<svg xmlns="http://www.w3.org/2000/svg" width="745" height="101" viewBox="0 0 745 101" role="img" aria-label="A year of contributions as a field, with a cannon firing on each of the 32 days with commits in turn"><style>.c{stroke-width:0;rx:2;transform-box:fill-box;transform-origin:center}@keyframes popg{0%,95%{transform:scale(1);filter:none}96.8%{transform:scale(1.6);filter:brightness(1.7)}98.4%{transform:scale(.82);filter:none}100%{transform:scale(1)}}.gun{fill:#57606a}.shell{fill:#57606a}@media (prefers-reduced-motion:reduce){.c,.turret,.shell{animation:none!important}.shell{opacity:0}}.l0{fill:#ebedf0}.l1{fill:#9be9a8}.l2{fill:#40c463}.l3{fill:#30a14e}.l4{fill:#216e39}@media (prefers-color-scheme:dark){.l0{fill:#161b22}.l1{fill:#0e4429}.l2{fill:#006d32}.l3{fill:#26a641}.l4{fill:#39d353}.gun,.shell{fill:#adbac7}}@keyframes aim{0.848%{transform:rotate(-7.13deg)}3.795%{transform:rotate(-7.13deg)}3.973%{transform:rotate(2.39deg)}6.920%{transform:rotate(2.39deg)}7.098%{transform:rotate(-6.84deg)}10.045%{transform:rotate(-6.84deg)}10.223%{transform:rotate(-167.47deg)}13.170%{transform:rotate(-167.47deg)}13.348%{transform:rotate(-5.44deg)}16.295%{transform:rotate(-5.44deg)}16.473%{transform:rotate(2.49deg)}19.420%{transform:rotate(2.49deg)}19.598%{transform:rotate(0.00deg)}22.545%{transform:rotate(0.00deg)}22.723%{transform:rotate(-7.43deg)}25.670%{transform:rotate(-7.43deg)}25.848%{transform:rotate(7.43deg)}28.795%{transform:rotate(7.43deg)}28.973%{transform:rotate(4.57deg)}31.920%{transform:rotate(4.57deg)}32.098%{transform:rotate(4.97deg)}35.045%{transform:rotate(4.97deg)}35.223%{transform:rotate(2.60deg)}38.170%{transform:rotate(2.60deg)}38.348%{transform:rotate(-4.97deg)}41.295%{transform:rotate(-4.97deg)}41.473%{transform:rotate(0.00deg)}44.420%{transform:rotate(0.00deg)}44.598%{transform:rotate(2.29deg)}47.545%{transform:rotate(2.29deg)}47.723%{transform:rotate(0.00deg)}50.670%{transform:rotate(0.00deg)}50.848%{transform:rotate(7.77deg)}53.795%{transform:rotate(7.77deg)}53.973%{transform:rotate(0.00deg)}56.920%{transform:rotate(0.00deg)}57.098%{transform:rotate(7.13deg)}60.045%{transform:rotate(7.13deg)}60.223%{transform:rotate(-2.39deg)}63.170%{transform:rotate(-2.39deg)}63.348%{transform:rotate(-2.49deg)}66.295%{transform:rotate(-2.49deg)}66.473%{transform:rotate(6.84deg)}69.420%{transform:rotate(6.84deg)}69.598%{transform:rotate(-4.76deg)}72.545%{transform:rotate(-4.76deg)}72.723%{transform:rotate(4.76deg)}75.670%{transform:rotate(4.76deg)}75.848%{transform:rotate(5.19deg)}78.795%{transform:rotate(5.19deg)}78.973%{transform:rotate(-6.58deg)}81.920%{transform:rotate(-6.58deg)}82.098%{transform:rotate(-2.29deg)}85.045%{transform:rotate(-2.29deg)}85.223%{transform:rotate(153.43deg)}88.170%{transform:rotate(153.43deg)}88.348%{transform:rotate(-4.40deg)}91.295%{transform:rotate(-4.40deg)}91.473%{transform:rotate(-4.57deg)}94.420%{transform:rotate(-4.57deg)}94.598%{transform:rotate(-2.20deg)}97.545%{transform:rotate(-2.20deg)}97.723%{transform:rotate(0.00deg)}100.670%{transform:rotate(0.00deg)}}.turret{transform-box:fill-box;animation:aim 22.40s linear infinite}@keyframes f0{0%,1.552%{transform:translate(0,0);opacity:0}1.562%{transform:translate(0,0);opacity:1}3.795%{transform:translate(336.0px,-42.0px);opacity:1}3.805%,100%{transform:translate(336.0px,-42.0px);opacity:0}}@keyframes f1{0%,4.677%{transform:translate(0,0);opacity:0}4.687%{transform:translate(0,0);opacity:1}6.920%{transform:translate(336.0px,14.0px);opacity:1}6.930%,100%{transform:translate(336.0px,14.0px);opacity:0}}@keyframes f2{0%,7.803%{transform:translate(0,0);opacity:0}7.812%{transform:translate(0,0);opacity:1}10.045%{transform:translate(350.0px,-42.0px);opacity:1}10.055%,100%{transform:translate(350.0px,-42.0px);opacity:0}}@keyframes f3{0%,10.928%{transform:translate(0,0);opacity:0}10.938%{transform:translate(0,0);opacity:1}13.170%{transform:translate(-126.0px,-28.0px);opacity:1}13.180%,100%{transform:translate(-126.0px,-28.0px);opacity:0}}@keyframes f4{0%,14.053%{transform:translate(0,0);opacity:0}14.062%{transform:translate(0,0);opacity:1}16.295%{transform:translate(294.0px,-28.0px);opacity:1}16.305%,100%{transform:translate(294.0px,-28.0px);opacity:0}}@keyframes f5{0%,17.177%{transform:translate(0,0);opacity:0}17.188%{transform:translate(0,0);opacity:1}19.420%{transform:translate(322.0px,14.0px);opacity:1}19.430%,100%{transform:translate(322.0px,14.0px);opacity:0}}@keyframes f6{0%,20.302%{transform:translate(0,0);opacity:0}20.312%{transform:translate(0,0);opacity:1}22.545%{transform:translate(364.0px,0.0px);opacity:1}22.555%,100%{transform:translate(364.0px,0.0px);opacity:0}}@keyframes f7{0%,23.428%{transform:translate(0,0);opacity:0}23.438%{transform:translate(0,0);opacity:1}25.670%{transform:translate(322.0px,-42.0px);opacity:1}25.680%,100%{transform:translate(322.0px,-42.0px);opacity:0}}@keyframes f8{0%,26.552%{transform:translate(0,0);opacity:0}26.562%{transform:translate(0,0);opacity:1}28.795%{transform:translate(322.0px,42.0px);opacity:1}28.805%,100%{transform:translate(322.0px,42.0px);opacity:0}}@keyframes f9{0%,29.677%{transform:translate(0,0);opacity:0}29.688%{transform:translate(0,0);opacity:1}31.920%{transform:translate(350.0px,28.0px);opacity:1}31.930%,100%{transform:translate(350.0px,28.0px);opacity:0}}@keyframes f10{0%,32.803%{transform:translate(0,0);opacity:0}32.812%{transform:translate(0,0);opacity:1}35.045%{transform:translate(322.0px,28.0px);opacity:1}35.055%,100%{transform:translate(322.0px,28.0px);opacity:0}}@keyframes f11{0%,35.928%{transform:translate(0,0);opacity:0}35.938%{transform:translate(0,0);opacity:1}38.170%{transform:translate(308.0px,14.0px);opacity:1}38.180%,100%{transform:translate(308.0px,14.0px);opacity:0}}@keyframes f12{0%,39.053%{transform:translate(0,0);opacity:0}39.062%{transform:translate(0,0);opacity:1}41.295%{transform:translate(322.0px,-28.0px);opacity:1}41.305%,100%{transform:translate(322.0px,-28.0px);opacity:0}}@keyframes f13{0%,42.178%{transform:translate(0,0);opacity:0}42.188%{transform:translate(0,0);opacity:1}44.420%{transform:translate(322.0px,0.0px);opacity:1}44.430%,100%{transform:translate(322.0px,0.0px);opacity:0}}@keyframes f14{0%,45.302%{transform:translate(0,0);opacity:0}45.312%{transform:translate(0,0);opacity:1}47.545%{transform:translate(350.0px,14.0px);opacity:1}47.555%,100%{transform:translate(350.0px,14.0px);opacity:0}}@keyframes f15{0%,48.428%{transform:translate(0,0);opacity:0}48.438%{transform:translate(0,0);opacity:1}50.670%{transform:translate(336.0px,0.0px);opacity:1}50.680%,100%{transform:translate(336.0px,0.0px);opacity:0}}@keyframes f16{0%,51.553%{transform:translate(0,0);opacity:0}51.562%{transform:translate(0,0);opacity:1}53.795%{transform:translate(308.0px,42.0px);opacity:1}53.805%,100%{transform:translate(308.0px,42.0px);opacity:0}}@keyframes f17{0%,54.678%{transform:translate(0,0);opacity:0}54.688%{transform:translate(0,0);opacity:1}56.920%{transform:translate(350.0px,0.0px);opacity:1}56.930%,100%{transform:translate(350.0px,0.0px);opacity:0}}@keyframes f18{0%,57.803%{transform:translate(0,0);opacity:0}57.812%{transform:translate(0,0);opacity:1}60.045%{transform:translate(336.0px,42.0px);opacity:1}60.055%,100%{transform:translate(336.0px,42.0px);opacity:0}}@keyframes f19{0%,60.928%{transform:translate(0,0);opacity:0}60.938%{transform:translate(0,0);opacity:1}63.170%{transform:translate(336.0px,-14.0px);opacity:1}63.180%,100%{transform:translate(336.0px,-14.0px);opacity:0}}@keyframes f20{0%,64.052%{transform:translate(0,0);opacity:0}64.062%{transform:translate(0,0);opacity:1}66.295%{transform:translate(322.0px,-14.0px);opacity:1}66.305%,100%{transform:translate(322.0px,-14.0px);opacity:0}}@keyframes f21{0%,67.177%{transform:translate(0,0);opacity:0}67.188%{transform:translate(0,0);opacity:1}69.420%{transform:translate(350.0px,42.0px);opacity:1}69.430%,100%{transform:translate(350.0px,42.0px);opacity:0}}@keyframes f22{0%,70.302%{transform:translate(0,0);opacity:0}70.312%{transform:translate(0,0);opacity:1}72.545%{transform:translate(336.0px,-28.0px);opacity:1}72.555%,100%{transform:translate(336.0px,-28.0px);opacity:0}}@keyframes f23{0%,73.427%{transform:translate(0,0);opacity:0}73.438%{transform:translate(0,0);opacity:1}75.670%{transform:translate(336.0px,28.0px);opacity:1}75.680%,100%{transform:translate(336.0px,28.0px);opacity:0}}@keyframes f24{0%,76.552%{transform:translate(0,0);opacity:0}76.562%{transform:translate(0,0);opacity:1}78.795%{transform:translate(308.0px,28.0px);opacity:1}78.805%,100%{transform:translate(308.0px,28.0px);opacity:0}}@keyframes f25{0%,79.677%{transform:translate(0,0);opacity:0}79.688%{transform:translate(0,0);opacity:1}81.920%{transform:translate(364.0px,-42.0px);opacity:1}81.930%,100%{transform:translate(364.0px,-42.0px);opacity:0}}@keyframes f26{0%,82.802%{transform:translate(0,0);opacity:0}82.812%{transform:translate(0,0);opacity:1}85.045%{transform:translate(350.0px,-14.0px);opacity:1}85.055%,100%{transform:translate(350.0px,-14.0px);opacity:0}}@keyframes f27{0%,85.927%{transform:translate(0,0);opacity:0}85.938%{transform:translate(0,0);opacity:1}88.170%{transform:translate(-84.0px,42.0px);opacity:1}88.180%,100%{transform:translate(-84.0px,42.0px);opacity:0}}@keyframes f28{0%,89.052%{transform:translate(0,0);opacity:0}89.062%{transform:translate(0,0);opacity:1}91.295%{transform:translate(364.0px,-28.0px);opacity:1}91.305%,100%{transform:translate(364.0px,-28.0px);opacity:0}}@keyframes f29{0%,92.177%{transform:translate(0,0);opacity:0}92.188%{transform:translate(0,0);opacity:1}94.420%{transform:translate(350.0px,-28.0px);opacity:1}94.430%,100%{transform:translate(350.0px,-28.0px);opacity:0}}@keyframes f30{0%,95.302%{transform:translate(0,0);opacity:0}95.312%{transform:translate(0,0);opacity:1}97.545%{transform:translate(364.0px,-14.0px);opacity:1}97.555%,100%{transform:translate(364.0px,-14.0px);opacity:0}}@keyframes f31{0%,98.427%{transform:translate(0,0);opacity:0}98.437%{transform:translate(0,0);opacity:1}100.670%{transform:translate(308.0px,0.0px);opacity:1}100.000%,100%{transform:translate(308.0px,0.0px);opacity:0}}</style><rect class="c l0" x="3" y="3" width="11" height="11"/><rect class="c l0" x="3" y="17" width="11" height="11"/><rect class="c l0" x="3" y="31" width="11" height="11"/><rect class="c l0" x="3" y="45" width="11" height="11"/><rect class="c l0" x="3" y="59" width="11" height="11"/><rect class="c l0" x="3" y="73" width="11" height="11"/><rect class="c l0" x="3" y="87" width="11" height="11"/><rect class="c l0" x="17" y="3" width="11" height="11"/><rect class="c l0" x="17" y="17" width="11" height="11"/><rect class="c l0" x="17" y="31" width="11" height="11"/><rect class="c l0" x="17" y="45" width="11" height="11"/><rect class="c l0" x="17" y="59" width="11" height="11"/><rect class="c l0" x="17" y="73" width="11" height="11"/><rect class="c l0" x="17" y="87" width="11" height="11"/><rect class="c l0" x="31" y="3" width="11" height="11"/><rect class="c l0" x="31" y="17" width="11" height="11"/><rect class="c l0" x="31" y="31" width="11" height="11"/><rect class="c l0" x="31" y="45" width="11" height="11"/><rect class="c l0" x="31" y="59" width="11" height="11"/><rect class="c l0" x="31" y="73" width="11" height="11"/><rect class="c l0" x="31" y="87" width="11" height="11"/><rect class="c l0" x="45" y="3" width="11" height="11"/><rect class="c l0" x="45" y="17" width="11" height="11"/><rect class="c l0" x="45" y="31" width="11" height="11"/><rect class="c l0" x="45" y="45" width="11" height="11"/><rect class="c l0" x="45" y="59" width="11" height="11"/><rect class="c l0" x="45" y="73" width="11" height="11"/><rect class="c l0" x="45" y="87" width="11" height="11"/><rect class="c l0" x="59" y="3" width="11" height="11"/><rect class="c l0" x="59" y="17" width="11" height="11"/><rect class="c l0" x="59" y="31" width="11" height="11"/><rect class="c l0" x="59" y="45" width="11" height="11"/><rect class="c l0" x="59" y="59" width="11" height="11"/><rect class="c l0" x="59" y="73" width="11" height="11"/><rect class="c l0" x="59" y="87" width="11" height="11"/><rect class="c l0" x="73" y="3" width="11" height="11"/><rect class="c l0" x="73" y="17" width="11" height="11"/><rect class="c l0" x="73" y="31" width="11" height="11"/><rect class="c l0" x="73" y="45" width="11" height="11"/><rect class="c l0" x="73" y="59" width="11" height="11"/><rect class="c l0" x="73" y="73" width="11" height="11"/><rect class="c l0" x="73" y="87" width="11" height="11"/><rect class="c l0" x="87" y="3" width="11" height="11"/><rect class="c l0" x="87" y="17" width="11" height="11"/><rect class="c l0" x="87" y="31" width="11" height="11"/><rect class="c l0" x="87" y="45" width="11" height="11"/><rect class="c l0" x="87" y="59" width="11" height="11"/><rect class="c l0" x="87" y="73" width="11" height="11"/><rect class="c l0" x="87" y="87" width="11" height="11"/><rect class="c l0" x="101" y="3" width="11" height="11"/><rect class="c l0" x="101" y="17" width="11" height="11"/><rect class="c l0" x="101" y="31" width="11" height="11"/><rect class="c l0" x="101" y="45" width="11" height="11"/><rect class="c l0" x="101" y="59" width="11" height="11"/><rect class="c l0" x="101" y="73" width="11" height="11"/><rect class="c l0" x="101" y="87" width="11" height="11"/><rect class="c l0" x="115" y="3" width="11" height="11"/><rect class="c l0" x="115" y="17" width="11" height="11"/><rect class="c l0" x="115" y="31" width="11" height="11"/><rect class="c l0" x="115" y="45" width="11" height="11"/><rect class="c l0" x="115" y="59" width="11" height="11"/><rect class="c l0" x="115" y="73" width="11" height="11"/><rect class="c l0" x="115" y="87" width="11" height="11"/><rect class="c l0" x="129" y="3" width="11" height="11"/><rect class="c l0" x="129" y="17" width="11" height="11"/><rect class="c l0" x="129" y="31" width="11" height="11"/><rect class="c l0" x="129" y="45" width="11" height="11"/><rect class="c l0" x="129" y="59" width="11" height="11"/><rect class="c l0" x="129" y="73" width="11" height="11"/><rect class="c l0" x="129" y="87" width="11" height="11"/><rect class="c l0" x="143" y="3" width="11" height="11"/><rect class="c l0" x="143" y="17" width="11" height="11"/><rect class="c l0" x="143" y="31" width="11" height="11"/><rect class="c l0" x="143" y="45" width="11" height="11"/><rect class="c l0" x="143" y="59" width="11" height="11"/><rect class="c l0" x="143" y="73" width="11" height="11"/><rect class="c l0" x="143" y="87" width="11" height="11"/><rect class="c l0" x="157" y="3" width="11" height="11"/><rect class="c l0" x="157" y="17" width="11" height="11"/><rect class="c l0" x="157" y="31" width="11" height="11"/><rect class="c l0" x="157" y="45" width="11" height="11"/><rect class="c l0" x="157" y="59" width="11" height="11"/><rect class="c l0" x="157" y="73" width="11" height="11"/><rect class="c l0" x="157" y="87" width="11" height="11"/><rect class="c l0" x="171" y="3" width="11" height="11"/><rect class="c l0" x="171" y="17" width="11" height="11"/><rect class="c l0" x="171" y="31" width="11" height="11"/><rect class="c l0" x="171" y="45" width="11" height="11"/><rect class="c l0" x="171" y="59" width="11" height="11"/><rect class="c l0" x="171" y="73" width="11" height="11"/><rect class="c l0" x="171" y="87" width="11" height="11"/><rect class="c l0" x="185" y="3" width="11" height="11"/><rect class="c l0" x="185" y="17" width="11" height="11"/><rect class="c l0" x="185" y="31" width="11" height="11"/><rect class="c l0" x="185" y="45" width="11" height="11"/><rect class="c l0" x="185" y="59" width="11" height="11"/><rect class="c l0" x="185" y="73" width="11" height="11"/><rect class="c l0" x="185" y="87" width="11" height="11"/><rect class="c l0" x="199" y="3" width="11" height="11"/><rect class="c l0" x="199" y="17" width="11" height="11"/><rect class="c l0" x="199" y="31" width="11" height="11"/><rect class="c l0" x="199" y="45" width="11" height="11"/><rect class="c l0" x="199" y="59" width="11" height="11"/><rect class="c l0" x="199" y="73" width="11" height="11"/><rect class="c l0" x="199" y="87" width="11" height="11"/><rect class="c l0" x="213" y="3" width="11" height="11"/><rect class="c l0" x="213" y="17" width="11" height="11"/><rect class="c l0" x="213" y="31" width="11" height="11"/><rect class="c l0" x="213" y="45" width="11" height="11"/><rect class="c l0" x="213" y="59" width="11" height="11"/><rect class="c l0" x="213" y="73" width="11" height="11"/><rect class="c l0" x="213" y="87" width="11" height="11"/><rect class="c l0" x="227" y="3" width="11" height="11"/><rect class="c l0" x="227" y="17" width="11" height="11"/><rect class="c l0" x="227" y="31" width="11" height="11"/><rect class="c l0" x="227" y="45" width="11" height="11"/><rect class="c l0" x="227" y="59" width="11" height="11"/><rect class="c l0" x="227" y="73" width="11" height="11"/><rect class="c l0" x="227" y="87" width="11" height="11"/><rect class="c l0" x="241" y="3" width="11" height="11"/><rect class="c l1" x="241" y="17" width="11" height="11" style="animation:popg 22.40s -18.733s infinite"/><rect class="c l0" x="241" y="31" width="11" height="11"/><rect class="c l0" x="241" y="45" width="11" height="11"/><rect class="c l0" x="241" y="59" width="11" height="11"/><rect class="c l0" x="241" y="73" width="11" height="11"/><rect class="c l0" x="241" y="87" width="11" height="11"/><rect class="c l0" x="255" y="3" width="11" height="11"/><rect class="c l0" x="255" y="17" width="11" height="11"/><rect class="c l0" x="255" y="31" width="11" height="11"/><rect class="c l0" x="255" y="45" width="11" height="11"/><rect class="c l0" x="255" y="59" width="11" height="11"/><rect class="c l0" x="255" y="73" width="11" height="11"/><rect class="c l0" x="255" y="87" width="11" height="11"/><rect class="c l0" x="269" y="3" width="11" height="11"/><rect class="c l0" x="269" y="17" width="11" height="11"/><rect class="c l0" x="269" y="31" width="11" height="11"/><rect class="c l0" x="269" y="45" width="11" height="11"/><rect class="c l0" x="269" y="59" width="11" height="11"/><rect class="c l0" x="269" y="73" width="11" height="11"/><rect class="c l0" x="269" y="87" width="11" height="11"/><rect class="c l0" x="283" y="3" width="11" height="11"/><rect class="c l0" x="283" y="17" width="11" height="11"/><rect class="c l0" x="283" y="31" width="11" height="11"/><rect class="c l0" x="283" y="45" width="11" height="11"/><rect class="c l0" x="283" y="59" width="11" height="11"/><rect class="c l0" x="283" y="73" width="11" height="11"/><rect class="c l1" x="283" y="87" width="11" height="11" style="animation:popg 22.40s -1.933s infinite"/><rect class="c l0" x="297" y="3" width="11" height="11"/><rect class="c l0" x="297" y="17" width="11" height="11"/><rect class="c l0" x="297" y="31" width="11" height="11"/><rect class="c l0" x="297" y="45" width="11" height="11"/><rect class="c l0" x="297" y="59" width="11" height="11"/><rect class="c l0" x="297" y="73" width="11" height="11"/><rect class="c l0" x="297" y="87" width="11" height="11"/><rect class="c l0" x="311" y="3" width="11" height="11"/><rect class="c l0" x="311" y="17" width="11" height="11"/><rect class="c l0" x="311" y="31" width="11" height="11"/><rect class="c l0" x="311" y="45" width="11" height="11"/><rect class="c l0" x="311" y="59" width="11" height="11"/><rect class="c l0" x="311" y="73" width="11" height="11"/><rect class="c l0" x="311" y="87" width="11" height="11"/><rect class="c l0" x="325" y="3" width="11" height="11"/><rect class="c l0" x="325" y="17" width="11" height="11"/><rect class="c l0" x="325" y="31" width="11" height="11"/><rect class="c l0" x="325" y="45" width="11" height="11"/><rect class="c l0" x="325" y="59" width="11" height="11"/><rect class="c l0" x="325" y="73" width="11" height="11"/><rect class="c l0" x="325" y="87" width="11" height="11"/><rect class="c l0" x="339" y="3" width="11" height="11"/><rect class="c l0" x="339" y="17" width="11" height="11"/><rect class="c l0" x="339" y="31" width="11" height="11"/><rect class="c l0" x="339" y="45" width="11" height="11"/><rect class="c l0" x="339" y="59" width="11" height="11"/><rect class="c l0" x="339" y="73" width="11" height="11"/><rect class="c l0" x="339" y="87" width="11" height="11"/><rect class="c l0" x="353" y="3" width="11" height="11"/><rect class="c l0" x="353" y="17" width="11" height="11"/><rect class="c l0" x="353" y="31" width="11" height="11"/><rect class="c l0" x="353" y="45" width="11" height="11"/><rect class="c l0" x="353" y="59" width="11" height="11"/><rect class="c l0" x="353" y="73" width="11" height="11"/><rect class="c l0" x="353" y="87" width="11" height="11"/><rect class="c l0" x="367" y="3" width="11" height="11"/><rect class="c l0" x="367" y="17" width="11" height="11"/><rect class="c l0" x="367" y="31" width="11" height="11"/><rect class="c l0" x="367" y="45" width="11" height="11"/><rect class="c l0" x="367" y="59" width="11" height="11"/><rect class="c l0" x="367" y="73" width="11" height="11"/><rect class="c l0" x="367" y="87" width="11" height="11"/><rect class="c l0" x="381" y="3" width="11" height="11"/><rect class="c l0" x="381" y="17" width="11" height="11"/><rect class="c l0" x="381" y="31" width="11" height="11"/><rect class="c l0" x="381" y="45" width="11" height="11"/><rect class="c l0" x="381" y="59" width="11" height="11"/><rect class="c l0" x="381" y="73" width="11" height="11"/><rect class="c l0" x="381" y="87" width="11" height="11"/><rect class="c l0" x="395" y="3" width="11" height="11"/><rect class="c l0" x="395" y="17" width="11" height="11"/><rect class="c l0" x="395" y="31" width="11" height="11"/><rect class="c l0" x="395" y="45" width="11" height="11"/><rect class="c l0" x="395" y="59" width="11" height="11"/><rect class="c l0" x="395" y="73" width="11" height="11"/><rect class="c l0" x="395" y="87" width="11" height="11"/><rect class="c l0" x="409" y="3" width="11" height="11"/><rect class="c l0" x="409" y="17" width="11" height="11"/><rect class="c l0" x="409" y="31" width="11" height="11"/><rect class="c l0" x="409" y="45" width="11" height="11"/><rect class="c l0" x="409" y="59" width="11" height="11"/><rect class="c l0" x="409" y="73" width="11" height="11"/><rect class="c l0" x="409" y="87" width="11" height="11"/><rect class="c l0" x="423" y="3" width="11" height="11"/><rect class="c l0" x="423" y="17" width="11" height="11"/><rect class="c l0" x="423" y="31" width="11" height="11"/><rect class="c l0" x="423" y="45" width="11" height="11"/><rect class="c l0" x="423" y="59" width="11" height="11"/><rect class="c l0" x="423" y="73" width="11" height="11"/><rect class="c l0" x="423" y="87" width="11" height="11"/><rect class="c l0" x="437" y="3" width="11" height="11"/><rect class="c l0" x="437" y="17" width="11" height="11"/><rect class="c l0" x="437" y="31" width="11" height="11"/><rect class="c l0" x="437" y="45" width="11" height="11"/><rect class="c l0" x="437" y="59" width="11" height="11"/><rect class="c l0" x="437" y="73" width="11" height="11"/><rect class="c l0" x="437" y="87" width="11" height="11"/><rect class="c l0" x="451" y="3" width="11" height="11"/><rect class="c l0" x="451" y="17" width="11" height="11"/><rect class="c l0" x="451" y="31" width="11" height="11"/><rect class="c l0" x="451" y="45" width="11" height="11"/><rect class="c l0" x="451" y="59" width="11" height="11"/><rect class="c l0" x="451" y="73" width="11" height="11"/><rect class="c l0" x="451" y="87" width="11" height="11"/><rect class="c l0" x="465" y="3" width="11" height="11"/><rect class="c l0" x="465" y="17" width="11" height="11"/><rect class="c l0" x="465" y="31" width="11" height="11"/><rect class="c l0" x="465" y="45" width="11" height="11"/><rect class="c l0" x="465" y="59" width="11" height="11"/><rect class="c l0" x="465" y="73" width="11" height="11"/><rect class="c l0" x="465" y="87" width="11" height="11"/><rect class="c l0" x="479" y="3" width="11" height="11"/><rect class="c l0" x="479" y="17" width="11" height="11"/><rect class="c l0" x="479" y="31" width="11" height="11"/><rect class="c l0" x="479" y="45" width="11" height="11"/><rect class="c l0" x="479" y="59" width="11" height="11"/><rect class="c l0" x="479" y="73" width="11" height="11"/><rect class="c l0" x="479" y="87" width="11" height="11"/><rect class="c l0" x="493" y="3" width="11" height="11"/><rect class="c l0" x="493" y="17" width="11" height="11"/><rect class="c l0" x="493" y="31" width="11" height="11"/><rect class="c l0" x="493" y="45" width="11" height="11"/><rect class="c l0" x="493" y="59" width="11" height="11"/><rect class="c l0" x="493" y="73" width="11" height="11"/><rect class="c l0" x="493" y="87" width="11" height="11"/><rect class="c l0" x="507" y="3" width="11" height="11"/><rect class="c l0" x="507" y="17" width="11" height="11"/><rect class="c l0" x="507" y="31" width="11" height="11"/><rect class="c l0" x="507" y="45" width="11" height="11"/><rect class="c l0" x="507" y="59" width="11" height="11"/><rect class="c l0" x="507" y="73" width="11" height="11"/><rect class="c l0" x="507" y="87" width="11" height="11"/><rect class="c l0" x="521" y="3" width="11" height="11"/><rect class="c l0" x="521" y="17" width="11" height="11"/><rect class="c l0" x="521" y="31" width="11" height="11"/><rect class="c l0" x="521" y="45" width="11" height="11"/><rect class="c l0" x="521" y="59" width="11" height="11"/><rect class="c l0" x="521" y="73" width="11" height="11"/><rect class="c l0" x="521" y="87" width="11" height="11"/><rect class="c l0" x="535" y="3" width="11" height="11"/><rect class="c l0" x="535" y="17" width="11" height="11"/><rect class="c l0" x="535" y="31" width="11" height="11"/><rect class="c l0" x="535" y="45" width="11" height="11"/><rect class="c l0" x="535" y="59" width="11" height="11"/><rect class="c l0" x="535" y="73" width="11" height="11"/><rect class="c l0" x="535" y="87" width="11" height="11"/><rect class="c l0" x="549" y="3" width="11" height="11"/><rect class="c l0" x="549" y="17" width="11" height="11"/><rect class="c l0" x="549" y="31" width="11" height="11"/><rect class="c l0" x="549" y="45" width="11" height="11"/><rect class="c l0" x="549" y="59" width="11" height="11"/><rect class="c l0" x="549" y="73" width="11" height="11"/><rect class="c l0" x="549" y="87" width="11" height="11"/><rect class="c l0" x="563" y="3" width="11" height="11"/><rect class="c l0" x="563" y="17" width="11" height="11"/><rect class="c l0" x="563" y="31" width="11" height="11"/><rect class="c l0" x="563" y="45" width="11" height="11"/><rect class="c l0" x="563" y="59" width="11" height="11"/><rect class="c l0" x="563" y="73" width="11" height="11"/><rect class="c l0" x="563" y="87" width="11" height="11"/><rect class="c l0" x="577" y="3" width="11" height="11"/><rect class="c l0" x="577" y="17" width="11" height="11"/><rect class="c l0" x="577" y="31" width="11" height="11"/><rect class="c l0" x="577" y="45" width="11" height="11"/><rect class="c l0" x="577" y="59" width="11" height="11"/><rect class="c l0" x="577" y="73" width="11" height="11"/><rect class="c l0" x="577" y="87" width="11" height="11"/><rect class="c l0" x="591" y="3" width="11" height="11"/><rect class="c l0" x="591" y="17" width="11" height="11"/><rect class="c l0" x="591" y="31" width="11" height="11"/><rect class="c l0" x="591" y="45" width="11" height="11"/><rect class="c l0" x="591" y="59" width="11" height="11"/><rect class="c l0" x="591" y="73" width="11" height="11"/><rect class="c l0" x="591" y="87" width="11" height="11"/><rect class="c l0" x="605" y="3" width="11" height="11"/><rect class="c l0" x="605" y="17" width="11" height="11"/><rect class="c l0" x="605" y="31" width="11" height="11"/><rect class="c l0" x="605" y="45" width="11" height="11"/><rect class="c l0" x="605" y="59" width="11" height="11"/><rect class="c l0" x="605" y="73" width="11" height="11"/><rect class="c l0" x="605" y="87" width="11" height="11"/><rect class="c l0" x="619" y="3" width="11" height="11"/><rect class="c l0" x="619" y="17" width="11" height="11"/><rect class="c l0" x="619" y="31" width="11" height="11"/><rect class="c l0" x="619" y="45" width="11" height="11"/><rect class="c l0" x="619" y="59" width="11" height="11"/><rect class="c l0" x="619" y="73" width="11" height="11"/><rect class="c l0" x="619" y="87" width="11" height="11"/><rect class="c l0" x="633" y="3" width="11" height="11"/><rect class="c l0" x="633" y="17" width="11" height="11"/><rect class="c l0" x="633" y="31" width="11" height="11"/><rect class="c l0" x="633" y="45" width="11" height="11"/><rect class="c l0" x="633" y="59" width="11" height="11"/><rect class="c l0" x="633" y="73" width="11" height="11"/><rect class="c l0" x="633" y="87" width="11" height="11"/><rect class="c l0" x="647" y="3" width="11" height="11"/><rect class="c l0" x="647" y="17" width="11" height="11"/><rect class="c l0" x="647" y="31" width="11" height="11"/><rect class="c l0" x="647" y="45" width="11" height="11"/><rect class="c l0" x="647" y="59" width="11" height="11"/><rect class="c l0" x="647" y="73" width="11" height="11"/><rect class="c l0" x="647" y="87" width="11" height="11"/><rect class="c l0" x="661" y="3" width="11" height="11"/><rect class="c l2" x="661" y="17" width="11" height="11" style="animation:popg 22.40s -18.033s infinite"/><rect class="c l0" x="661" y="31" width="11" height="11"/><rect class="c l0" x="661" y="45" width="11" height="11"/><rect class="c l0" x="661" y="59" width="11" height="11"/><rect class="c l0" x="661" y="73" width="11" height="11"/><rect class="c l0" x="661" y="87" width="11" height="11"/><rect class="c l0" x="675" y="3" width="11" height="11"/><rect class="c l0" x="675" y="17" width="11" height="11"/><rect class="c l0" x="675" y="31" width="11" height="11"/><rect class="c l1" x="675" y="45" width="11" height="11" style="animation:popg 22.40s -21.533s infinite"/><rect class="c l1" x="675" y="59" width="11" height="11" style="animation:popg 22.40s -13.133s infinite"/><rect class="c l1" x="675" y="73" width="11" height="11" style="animation:popg 22.40s -4.033s infinite"/><rect class="c l1" x="675" y="87" width="11" height="11" style="animation:popg 22.40s -9.633s infinite"/><rect class="c l2" x="689" y="3" width="11" height="11" style="animation:popg 22.40s -15.933s infinite"/><rect class="c l3" x="689" y="17" width="11" height="11" style="animation:popg 22.40s -12.433s infinite"/><rect class="c l3" x="689" y="31" width="11" height="11" style="animation:popg 22.40s -6.833s infinite"/><rect class="c l4" x="689" y="45" width="11" height="11" style="animation:popg 22.40s -11.733s infinite"/><rect class="c l1" x="689" y="59" width="11" height="11" style="animation:popg 22.40s -17.333s infinite"/><rect class="c l2" x="689" y="73" width="11" height="11" style="animation:popg 22.40s -13.833s infinite"/><rect class="c l2" x="689" y="87" width="11" height="11" style="animation:popg 22.40s -15.233s infinite"/><rect class="c l3" x="703" y="3" width="11" height="11" style="animation:popg 22.40s -20.833s infinite"/><rect class="c l1" x="703" y="17" width="11" height="11" style="animation:popg 22.40s -5.433s infinite"/><rect class="c l2" x="703" y="31" width="11" height="11" style="animation:popg 22.40s -7.533s infinite"/><rect class="c l1" x="703" y="45" width="11" height="11" style="animation:popg 22.40s -10.333s infinite"/><rect class="c l2" x="703" y="59" width="11" height="11" style="animation:popg 22.40s -20.133s infinite"/><rect class="c l4" x="703" y="73" width="11" height="11" style="animation:popg 22.40s -4.733s infinite"/><rect class="c l1" x="703" y="87" width="11" height="11" style="animation:popg 22.40s -8.233s infinite"/><rect class="c l1" x="717" y="3" width="11" height="11" style="animation:popg 22.40s -19.433s infinite"/><rect class="c l1" x="717" y="17" width="11" height="11" style="animation:popg 22.40s -0.533s infinite"/><rect class="c l1" x="717" y="31" width="11" height="11" style="animation:popg 22.40s -2.633s infinite"/><rect class="c l1" x="717" y="45" width="11" height="11" style="animation:popg 22.40s -8.933s infinite"/><rect class="c l1" x="717" y="59" width="11" height="11" style="animation:popg 22.40s -11.033s infinite"/><rect class="c l1" x="717" y="73" width="11" height="11" style="animation:popg 22.40s -14.533s infinite"/><rect class="c l1" x="717" y="87" width="11" height="11" style="animation:popg 22.40s -6.133s infinite"/><rect class="c l1" x="731" y="3" width="11" height="11" style="animation:popg 22.40s -3.333s infinite"/><rect class="c l1" x="731" y="17" width="11" height="11" style="animation:popg 22.40s -1.233s infinite"/><rect class="c l1" x="731" y="31" width="11" height="11" style="animation:popg 22.40s -22.233s infinite"/><rect class="c l1" x="731" y="45" width="11" height="11" style="animation:popg 22.40s -16.633s infinite"/><rect class="c l0" x="731" y="59" width="11" height="11"/><circle class="shell" cx="372.5" cy="50.5" r="3.2" style="animation:f0 22.40s linear infinite"/><circle class="shell" cx="372.5" cy="50.5" r="3.2" style="animation:f1 22.40s linear infinite"/><circle class="shell" cx="372.5" cy="50.5" r="3.2" style="animation:f2 22.40s linear infinite"/><circle class="shell" cx="372.5" cy="50.5" r="3.2" style="animation:f3 22.40s linear infinite"/><circle class="shell" cx="372.5" cy="50.5" r="3.2" style="animation:f4 22.40s linear infinite"/><circle class="shell" cx="372.5" cy="50.5" r="3.2" style="animation:f5 22.40s linear infinite"/><circle class="shell" cx="372.5" cy="50.5" r="3.2" style="animation:f6 22.40s linear infinite"/><circle class="shell" cx="372.5" cy="50.5" r="3.2" style="animation:f7 22.40s linear infinite"/><circle class="shell" cx="372.5" cy="50.5" r="3.2" style="animation:f8 22.40s linear infinite"/><circle class="shell" cx="372.5" cy="50.5" r="3.2" style="animation:f9 22.40s linear infinite"/><circle class="shell" cx="372.5" cy="50.5" r="3.2" style="animation:f10 22.40s linear infinite"/><circle class="shell" cx="372.5" cy="50.5" r="3.2" style="animation:f11 22.40s linear infinite"/><circle class="shell" cx="372.5" cy="50.5" r="3.2" style="animation:f12 22.40s linear infinite"/><circle class="shell" cx="372.5" cy="50.5" r="3.2" style="animation:f13 22.40s linear infinite"/><circle class="shell" cx="372.5" cy="50.5" r="3.2" style="animation:f14 22.40s linear infinite"/><circle class="shell" cx="372.5" cy="50.5" r="3.2" style="animation:f15 22.40s linear infinite"/><circle class="shell" cx="372.5" cy="50.5" r="3.2" style="animation:f16 22.40s linear infinite"/><circle class="shell" cx="372.5" cy="50.5" r="3.2" style="animation:f17 22.40s linear infinite"/><circle class="shell" cx="372.5" cy="50.5" r="3.2" style="animation:f18 22.40s linear infinite"/><circle class="shell" cx="372.5" cy="50.5" r="3.2" style="animation:f19 22.40s linear infinite"/><circle class="shell" cx="372.5" cy="50.5" r="3.2" style="animation:f20 22.40s linear infinite"/><circle class="shell" cx="372.5" cy="50.5" r="3.2" style="animation:f21 22.40s linear infinite"/><circle class="shell" cx="372.5" cy="50.5" r="3.2" style="animation:f22 22.40s linear infinite"/><circle class="shell" cx="372.5" cy="50.5" r="3.2" style="animation:f23 22.40s linear infinite"/><circle class="shell" cx="372.5" cy="50.5" r="3.2" style="animation:f24 22.40s linear infinite"/><circle class="shell" cx="372.5" cy="50.5" r="3.2" style="animation:f25 22.40s linear infinite"/><circle class="shell" cx="372.5" cy="50.5" r="3.2" style="animation:f26 22.40s linear infinite"/><circle class="shell" cx="372.5" cy="50.5" r="3.2" style="animation:f27 22.40s linear infinite"/><circle class="shell" cx="372.5" cy="50.5" r="3.2" style="animation:f28 22.40s linear infinite"/><circle class="shell" cx="372.5" cy="50.5" r="3.2" style="animation:f29 22.40s linear infinite"/><circle class="shell" cx="372.5" cy="50.5" r="3.2" style="animation:f30 22.40s linear infinite"/><circle class="shell" cx="372.5" cy="50.5" r="3.2" style="animation:f31 22.40s linear infinite"/><g transform="translate(372.5,50.5)"><g class="turret" style="transform-origin:7.0px 5.0px"><rect class="gun" x="-7.0" y="-5.0" width="14.0" height="10.0" rx="4.5"/><rect class="gun" x="5.0" y="-2.6" width="17.0" height="5.2" rx="2.6"/></g></g></svg>
