<svg xmlns="http://www.w3.org/2000/svg" width="745" height="101" viewBox="0 0 745 101" role="img" aria-label="A year of contributions as a field, with a cannon firing on each of the 20 days with commits in turn"><style>.c{stroke-width:0;rx:2;transform-box:fill-box;transform-origin:center}@keyframes popg{0%,95%{transform:scale(1);filter:none}96.8%{transform:scale(1.6);filter:brightness(1.7)}98.4%{transform:scale(.82);filter:none}100%{transform:scale(1)}}.gun{fill:#57606a}.shell{fill:#57606a}@media (prefers-reduced-motion:reduce){.c,.turret,.shell{animation:none!important}.shell{opacity:0}}.l0{fill:#ebedf0}.l1{fill:#9be9a8}.l2{fill:#40c463}.l3{fill:#30a14e}.l4{fill:#216e39}@media (prefers-color-scheme:dark){.l0{fill:#161b22}.l1{fill:#0e4429}.l2{fill:#006d32}.l3{fill:#26a641}.l4{fill:#39d353}.gun,.shell{fill:#adbac7}}@keyframes aim{1.357%{transform:rotate(2.39deg)}6.071%{transform:rotate(2.39deg)}6.357%{transform:rotate(-6.84deg)}11.071%{transform:rotate(-6.84deg)}11.357%{transform:rotate(-164.05deg)}16.071%{transform:rotate(-164.05deg)}16.357%{transform:rotate(0.00deg)}21.071%{transform:rotate(0.00deg)}21.357%{transform:rotate(4.40deg)}26.071%{transform:rotate(4.40deg)}26.357%{transform:rotate(4.57deg)}31.071%{transform:rotate(4.57deg)}31.357%{transform:rotate(143.13deg)}36.071%{transform:rotate(143.13deg)}36.357%{transform:rotate(-4.97deg)}41.071%{transform:rotate(-4.97deg)}41.357%{transform:rotate(2.20deg)}46.071%{transform:rotate(2.20deg)}46.357%{transform:rotate(2.29deg)}51.071%{transform:rotate(2.29deg)}51.357%{transform:rotate(0.00deg)}56.071%{transform:rotate(0.00deg)}56.357%{transform:rotate(0.00deg)}61.071%{transform:rotate(0.00deg)}61.357%{transform:rotate(7.13deg)}66.071%{transform:rotate(7.13deg)}66.357%{transform:rotate(6.84deg)}71.071%{transform:rotate(6.84deg)}71.357%{transform:rotate(4.76deg)}76.071%{transform:rotate(4.76deg)}76.357%{transform:rotate(-6.58deg)}81.071%{transform:rotate(-6.58deg)}81.357%{transform:rotate(-2.29deg)}86.071%{transform:rotate(-2.29deg)}86.357%{transform:rotate(-4.40deg)}91.071%{transform:rotate(-4.40deg)}91.357%{transform:rotate(-4.57deg)}96.071%{transform:rotate(-4.57deg)}96.357%{transform:rotate(-2.20deg)}101.071%{transform:rotate(-2.20deg)}}.turret{transform-box:fill-box;animation:aim 14.00s linear infinite}@keyframes f0{0%,2.490%{transform:translate(0,0);opacity:0}2.500%{transform:translate(0,0);opacity:1}6.071%{transform:translate(336.0px,14.0px);opacity:1}6.081%,100%{transform:translate(336.0px,14.0px);opacity:0}}@keyframes f1{0%,7.490%{transform:translate(0,0);opacity:0}7.500%{transform:translate(0,0);opacity:1}11.071%{transform:translate(350.0px,-42.0px);opacity:1}11.081%,100%{transform:translate(350.0px,-42.0px);opacity:0}}@keyframes f2{0%,12.490%{transform:translate(0,0);opacity:0}12.500%{transform:translate(0,0);opacity:1}16.071%{transform:translate(-98.0px,-28.0px);opacity:1}16.081%,100%{transform:translate(-98.0px,-28.0px);opacity:0}}@keyframes f3{0%,17.490%{transform:translate(0,0);opacity:0}17.500%{transform:translate(0,0);opacity:1}21.071%{transform:translate(364.0px,0.0px);opacity:1}21.081%,100%{transform:translate(364.0px,0.0px);opacity:0}}@keyframes f4{0%,22.490%{transform:translate(0,0);opacity:0}22.500%{transform:translate(0,0);opacity:1}26.071%{transform:translate(364.0px,28.0px);opacity:1}26.081%,100%{transform:translate(364.0px,28.0px);opacity:0}}@keyframes f5{0%,27.490%{transform:translate(0,0);opacity:0}27.500%{transform:translate(0,0);opacity:1}31.071%{transform:translate(350.0px,28.0px);opacity:1}31.081%,100%{transform:translate(350.0px,28.0px);opacity:0}}@keyframes f6{0%,32.490%{transform:translate(0,0);opacity:0}32.500%{transform:translate(0,0);opacity:1}36.071%{transform:translate(-56.0px,42.0px);opacity:1}36.081%,100%{transform:translate(-56.0px,42.0px);opacity:0}}@keyframes f7{0%,37.490%{transform:translate(0,0);opacity:0}37.500%{transform:translate(0,0);opacity:1}41.071%{transform:translate(322.0px,-28.0px);opacity:1}41.081%,100%{transform:translate(322.0px,-28.0px);opacity:0}}@keyframes f8{0%,42.490%{transform:translate(0,0);opacity:0}42.500%{transform:translate(0,0);opacity:1}46.071%{transform:translate(364.0px,14.0px);opacity:1}46.081%,100%{transform:translate(364.0px,14.0px);opacity:0}}@keyframes f9{0%,47.490%{transform:translate(0,0);opacity:0}47.500%{transform:translate(0,0);opacity:1}51.071%{transform:translate(350.0px,14.0px);opacity:1}51.081%,100%{transform:translate(350.0px,14.0px);opacity:0}}@keyframes f10{0%,52.490%{transform:translate(0,0);opacity:0}52.500%{transform:translate(0,0);opacity:1}56.071%{transform:translate(336.0px,0.0px);opacity:1}56.081%,100%{transform:translate(336.0px,0.0px);opacity:0}}@keyframes f11{0%,57.490%{transform:translate(0,0);opacity:0}57.500%{transform:translate(0,0);opacity:1}61.071%{transform:translate(350.0px,0.0px);opacity:1}61.081%,100%{transform:translate(350.0px,0.0px);opacity:0}}@keyframes f12{0%,62.490%{transform:translate(0,0);opacity:0}62.500%{transform:translate(0,0);opacity:1}66.071%{transform:translate(336.0px,42.0px);opacity:1}66.081%,100%{transform:translate(336.0px,42.0px);opacity:0}}@keyframes f13{0%,67.490%{transform:translate(0,0);opacity:0}67.500%{transform:translate(0,0);opacity:1}71.071%{transform:translate(350.0px,42.0px);opacity:1}71.081%,100%{transform:translate(350.0px,42.0px);opacity:0}}@keyframes f14{0%,72.490%{transform:translate(0,0);opacity:0}72.500%{transform:translate(0,0);opacity:1}76.071%{transform:translate(336.0px,28.0px);opacity:1}76.081%,100%{transform:translate(336.0px,28.0px);opacity:0}}@keyframes f15{0%,77.490%{transform:translate(0,0);opacity:0}77.500%{transform:translate(0,0);opacity:1}81.071%{transform:translate(364.0px,-42.0px);opacity:1}81.081%,100%{transform:translate(364.0px,-42.0px);opacity:0}}@keyframes f16{0%,82.490%{transform:translate(0,0);opacity:0}82.500%{transform:translate(0,0);opacity:1}86.071%{transform:translate(350.0px,-14.0px);opacity:1}86.081%,100%{transform:translate(350.0px,-14.0px);opacity:0}}@keyframes f17{0%,87.490%{transform:translate(0,0);opacity:0}87.500%{transform:translate(0,0);opacity:1}91.071%{transform:translate(364.0px,-28.0px);opacity:1}91.081%,100%{transform:translate(364.0px,-28.0px);opacity:0}}@keyframes f18{0%,92.490%{transform:translate(0,0);opacity:0}92.500%{transform:translate(0,0);opacity:1}96.071%{transform:translate(350.0px,-28.0px);opacity:1}96.081%,100%{transform:translate(350.0px,-28.0px);opacity:0}}@keyframes f19{0%,97.490%{transform:translate(0,0);opacity:0}97.500%{transform:translate(0,0);opacity:1}101.071%{transform:translate(364.0px,-14.0px);opacity:1}100.000%,100%{transform:translate(364.0px,-14.0px);opacity:0}}</style><rect class="c l0" x="3" y="3" width="11" height="11"/><rect class="c l0" x="3" y="17" width="11" height="11"/><rect class="c l0" x="3" y="31" width="11" height="11"/><rect class="c l0" x="3" y="45" width="11" height="11"/><rect class="c l0" x="3" y="59" width="11" height="11"/><rect class="c l0" x="3" y="73" width="11" height="11"/><rect class="c l0" x="3" y="87" width="11" height="11"/><rect class="c l0" x="17" y="3" width="11" height="11"/><rect class="c l0" x="17" y="17" width="11" height="11"/><rect class="c l0" x="17" y="31" width="11" height="11"/><rect class="c l0" x="17" y="45" width="11" height="11"/><rect class="c l0" x="17" y="59" width="11" height="11"/><rect class="c l0" x="17" y="73" width="11" height="11"/><rect class="c l0" x="17" y="87" width="11" height="11"/><rect class="c l0" x="31" y="3" width="11" height="11"/><rect class="c l0" x="31" y="17" width="11" height="11"/><rect class="c l0" x="31" y="31" width="11" height="11"/><rect class="c l0" x="31" y="45" width="11" height="11"/><rect class="c l0" x="31" y="59" width="11" height="11"/><rect class="c l0" x="31" y="73" width="11" height="11"/><rect class="c l0" x="31" y="87" width="11" height="11"/><rect class="c l0" x="45" y="3" width="11" height="11"/><rect class="c l0" x="45" y="17" width="11" height="11"/><rect class="c l0" x="45" y="31" width="11" height="11"/><rect class="c l0" x="45" y="45" width="11" height="11"/><rect class="c l0" x="45" y="59" width="11" height="11"/><rect class="c l0" x="45" y="73" width="11" height="11"/><rect class="c l0" x="45" y="87" width="11" height="11"/><rect class="c l0" x="59" y="3" width="11" height="11"/><rect class="c l0" x="59" y="17" width="11" height="11"/><rect class="c l0" x="59" y="31" width="11" height="11"/><rect class="c l0" x="59" y="45" width="11" height="11"/><rect class="c l0" x="59" y="59" width="11" height="11"/><rect class="c l0" x="59" y="73" width="11" height="11"/><rect class="c l0" x="59" y="87" width="11" height="11"/><rect class="c l0" x="73" y="3" width="11" height="11"/><rect class="c l0" x="73" y="17" width="11" height="11"/><rect class="c l0" x="73" y="31" width="11" height="11"/><rect class="c l0" x="73" y="45" width="11" height="11"/><rect class="c l0" x="73" y="59" width="11" height="11"/><rect class="c l0" x="73" y="73" width="11" height="11"/><rect class="c l0" x="73" y="87" width="11" height="11"/><rect class="c l0" x="87" y="3" width="11" height="11"/><rect class="c l0" x="87" y="17" width="11" height="11"/><rect class="c l0" x="87" y="31" width="11" height="11"/><rect class="c l0" x="87" y="45" width="11" height="11"/><rect class="c l0" x="87" y="59" width="11" height="11"/><rect class="c l0" x="87" y="73" width="11" height="11"/><rect class="c l0" x="87" y="87" width="11" height="11"/><rect class="c l0" x="101" y="3" width="11" height="11"/><rect class="c l0" x="101" y="17" width="11" height="11"/><rect class="c l0" x="101" y="31" width="11" height="11"/><rect class="c l0" x="101" y="45" width="11" height="11"/><rect class="c l0" x="101" y="59" width="11" height="11"/><rect class="c l0" x="101" y="73" width="11" height="11"/><rect class="c l0" x="101" y="87" width="11" height="11"/><rect class="c l0" x="115" y="3" width="11" height="11"/><rect class="c l0" x="115" y="17" width="11" height="11"/><rect class="c l0" x="115" y="31" width="11" height="11"/><rect class="c l0" x="115" y="45" width="11" height="11"/><rect class="c l0" x="115" y="59" width="11" height="11"/><rect class="c l0" x="115" y="73" width="11" height="11"/><rect class="c l0" x="115" y="87" width="11" height="11"/><rect class="c l0" x="129" y="3" width="11" height="11"/><rect class="c l0" x="129" y="17" width="11" height="11"/><rect class="c l0" x="129" y="31" width="11" height="11"/><rect class="c l0" x="129" y="45" width="11" height="11"/><rect class="c l0" x="129" y="59" width="11" height="11"/><rect class="c l0" x="129" y="73" width="11" height="11"/><rect class="c l0" x="129" y="87" width="11" height="11"/><rect class="c l0" x="143" y="3" width="11" height="11"/><rect class="c l0" x="143" y="17" width="11" height="11"/><rect class="c l0" x="143" y="31" width="11" height="11"/><rect class="c l0" x="143" y="45" width="11" height="11"/><rect class="c l0" x="143" y="59" width="11" height="11"/><rect class="c l0" x="143" y="73" width="11" height="11"/><rect class="c l0" x="143" y="87" width="11" height="11"/><rect class="c l0" x="157" y="3" width="11" height="11"/><rect class="c l0" x="157" y="17" width="11" height="11"/><rect class="c l0" x="157" y="31" width="11" height="11"/><rect class="c l0" x="157" y="45" width="11" height="11"/><rect class="c l0" x="157" y="59" width="11" height="11"/><rect class="c l0" x="157" y="73" width="11" height="11"/><rect class="c l0" x="157" y="87" width="11" height="11"/><rect class="c l0" x="171" y="3" width="11" height="11"/><rect class="c l0" x="171" y="17" width="11" height="11"/><rect class="c l0" x="171" y="31" width="11" height="11"/><rect class="c l0" x="171" y="45" width="11" height="11"/><rect class="c l0" x="171" y="59" width="11" height="11"/><rect class="c l0" x="171" y="73" width="11" height="11"/><rect class="c l0" x="171" y="87" width="11" height="11"/><rect class="c l0" x="185" y="3" width="11" height="11"/><rect class="c l0" x="185" y="17" width="11" height="11"/><rect class="c l0" x="185" y="31" width="11" height="11"/><rect class="c l0" x="185" y="45" width="11" height="11"/><rect class="c l0" x="185" y="59" width="11" height="11"/><rect class="c l0" x="185" y="73" width="11" height="11"/><rect class="c l0" x="185" y="87" width="11" height="11"/><rect class="c l0" x="199" y="3" width="11" height="11"/><rect class="c l0" x="199" y="17" width="11" height="11"/><rect class="c l0" x="199" y="31" width="11" height="11"/><rect class="c l0" x="199" y="45" width="11" height="11"/><rect class="c l0" x="199" y="59" width="11" height="11"/><rect class="c l0" x="199" y="73" width="11" height="11"/><rect class="c l0" x="199" y="87" width="11" height="11"/><rect class="c l0" x="213" y="3" width="11" height="11"/><rect class="c l0" x="213" y="17" width="11" height="11"/><rect class="c l0" x="213" y="31" width="11" height="11"/><rect class="c l0" x="213" y="45" width="11" height="11"/><rect class="c l0" x="213" y="59" width="11" height="11"/><rect class="c l0" x="213" y="73" width="11" height="11"/><rect class="c l0" x="213" y="87" width="11" height="11"/><rect class="c l0" x="227" y="3" width="11" height="11"/><rect class="c l0" x="227" y="17" width="11" height="11"/><rect class="c l0" x="227" y="31" width="11" height="11"/><rect class="c l0" x="227" y="45" width="11" height="11"/><rect class="c l0" x="227" y="59" width="11" height="11"/><rect class="c l0" x="227" y="73" width="11" height="11"/><rect class="c l0" x="227" y="87" width="11" height="11"/><rect class="c l0" x="241" y="3" width="11" height="11"/><rect class="c l0" x="241" y="17" width="11" height="11"/><rect class="c l0" x="241" y="31" width="11" height="11"/><rect class="c l0" x="241" y="45" width="11" height="11"/><rect class="c l0" x="241" y="59" width="11" height="11"/><rect class="c l0" x="241" y="73" width="11" height="11"/><rect class="c l0" x="241" y="87" width="11" height="11"/><rect class="c l0" x="255" y="3" width="11" height="11"/><rect class="c l0" x="255" y="17" width="11" height="11"/><rect class="c l0" x="255" y="31" width="11" height="11"/><rect class="c l0" x="255" y="45" width="11" height="11"/><rect class="c l0" x="255" y="59" width="11" height="11"/><rect class="c l0" x="255" y="73" width="11" height="11"/><rect class="c l0" x="255" y="87" width="11" height="11"/><rect class="c l0" x="269" y="3" width="11" height="11"/><rect class="c l1" x="269" y="17" width="11" height="11" style="animation:popg 14.00s -11.302s infinite"/><rect class="c l0" x="269" y="31" width="11" height="11"/><rect class="c l0" x="269" y="45" width="11" height="11"/><rect class="c l0" x="269" y="59" width="11" height="11"/><rect class="c l0" x="269" y="73" width="11" height="11"/><rect class="c l0" x="269" y="87" width="11" height="11"/><rect class="c l0" x="283" y="3" width="11" height="11"/><rect class="c l0" x="283" y="17" width="11" height="11"/><rect class="c l0" x="283" y="31" width="11" height="11"/><rect class="c l0" x="283" y="45" width="11" height="11"/><rect class="c l0" x="283" y="59" width="11" height="11"/><rect class="c l0" x="283" y="73" width="11" height="11"/><rect class="c l0" x="283" y="87" width="11" height="11"/><rect class="c l0" x="297" y="3" width="11" height="11"/><rect class="c l0" x="297" y="17" width="11" height="11"/><rect class="c l0" x="297" y="31" width="11" height="11"/><rect class="c l0" x="297" y="45" width="11" height="11"/><rect class="c l0" x="297" y="59" width="11" height="11"/><rect class="c l0" x="297" y="73" width="11" height="11"/><rect class="c l0" x="297" y="87" width="11" height="11"/><rect class="c l0" x="311" y="3" width="11" height="11"/><rect class="c l0" x="311" y="17" width="11" height="11"/><rect class="c l0" x="311" y="31" width="11" height="11"/><rect class="c l0" x="311" y="45" width="11" height="11"/><rect class="c l0" x="311" y="59" width="11" height="11"/><rect class="c l0" x="311" y="73" width="11" height="11"/><rect class="c l1" x="311" y="87" width="11" height="11" style="animation:popg 14.00s -8.502s infinite"/><rect class="c l0" x="325" y="3" width="11" height="11"/><rect class="c l0" x="325" y="17" width="11" height="11"/><rect class="c l0" x="325" y="31" width="11" height="11"/><rect class="c l0" x="325" y="45" width="11" height="11"/><rect class="c l0" x="325" y="59" width="11" height="11"/><rect class="c l0" x="325" y="73" width="11" height="11"/><rect class="c l0" x="325" y="87" width="11" height="11"/><rect class="c l0" x="339" y="3" width="11" height="11"/><rect class="c l0" x="339" y="17" width="11" height="11"/><rect class="c l0" x="339" y="31" width="11" height="11"/><rect class="c l0" x="339" y="45" width="11" height="11"/><rect class="c l0" x="339" y="59" width="11" height="11"/><rect class="c l0" x="339" y="73" width="11" height="11"/><rect class="c l0" x="339" y="87" width="11" height="11"/><rect class="c l0" x="353" y="3" width="11" height="11"/><rect class="c l0" x="353" y="17" width="11" height="11"/><rect class="c l0" x="353" y="31" width="11" height="11"/><rect class="c l0" x="353" y="45" width="11" height="11"/><rect class="c l0" x="353" y="59" width="11" height="11"/><rect class="c l0" x="353" y="73" width="11" height="11"/><rect class="c l0" x="353" y="87" width="11" height="11"/><rect class="c l0" x="367" y="3" width="11" height="11"/><rect class="c l0" x="367" y="17" width="11" height="11"/><rect class="c l0" x="367" y="31" width="11" height="11"/><rect class="c l0" x="367" y="45" width="11" height="11"/><rect class="c l0" x="367" y="59" width="11" height="11"/><rect class="c l0" x="367" y="73" width="11" height="11"/><rect class="c l0" x="367" y="87" width="11" height="11"/><rect class="c l0" x="381" y="3" width="11" height="11"/><rect class="c l0" x="381" y="17" width="11" height="11"/><rect class="c l0" x="381" y="31" width="11" height="11"/><rect class="c l0" x="381" y="45" width="11" height="11"/><rect class="c l0" x="381" y="59" width="11" height="11"/><rect class="c l0" x="381" y="73" width="11" height="11"/><rect class="c l0" x="381" y="87" width="11" height="11"/><rect class="c l0" x="395" y="3" width="11" height="11"/><rect class="c l0" x="395" y="17" width="11" height="11"/><rect class="c l0" x="395" y="31" width="11" height="11"/><rect class="c l0" x="395" y="45" width="11" height="11"/><rect class="c l0" x="395" y="59" width="11" height="11"/><rect class="c l0" x="395" y="73" width="11" height="11"/><rect class="c l0" x="395" y="87" width="11" height="11"/><rect class="c l0" x="409" y="3" width="11" height="11"/><rect class="c l0" x="409" y="17" width="11" height="11"/><rect class="c l0" x="409" y="31" width="11" height="11"/><rect class="c l0" x="409" y="45" width="11" height="11"/><rect class="c l0" x="409" y="59" width="11" height="11"/><rect class="c l0" x="409" y="73" width="11" height="11"/><rect class="c l0" x="409" y="87" width="11" height="11"/><rect class="c l0" x="423" y="3" width="11" height="11"/><rect class="c l0" x="423" y="17" width="11" height="11"/><rect class="c l0" x="423" y="31" width="11" height="11"/><rect class="c l0" x="423" y="45" width="11" height="11"/><rect class="c l0" x="423" y="59" width="11" height="11"/><rect class="c l0" x="423" y="73" width="11" height="11"/><rect class="c l0" x="423" y="87" width="11" height="11"/><rect class="c l0" x="437" y="3" width="11" height="11"/><rect class="c l0" x="437" y="17" width="11" height="11"/><rect class="c l0" x="437" y="31" width="11" height="11"/><rect class="c l0" x="437" y="45" width="11" height="11"/><rect class="c l0" x="437" y="59" width="11" height="11"/><rect class="c l0" x="437" y="73" width="11" height="11"/><rect class="c l0" x="437" y="87" width="11" height="11"/><rect class="c l0" x="451" y="3" width="11" height="11"/><rect class="c l0" x="451" y="17" width="11" height="11"/><rect class="c l0" x="451" y="31" width="11" height="11"/><rect class="c l0" x="451" y="45" width="11" height="11"/><rect class="c l0" x="451" y="59" width="11" height="11"/><rect class="c l0" x="451" y="73" width="11" height="11"/><rect class="c l0" x="451" y="87" width="11" height="11"/><rect class="c l0" x="465" y="3" width="11" height="11"/><rect class="c l0" x="465" y="17" width="11" height="11"/><rect class="c l0" x="465" y="31" width="11" height="11"/><rect class="c l0" x="465" y="45" width="11" height="11"/><rect class="c l0" x="465" y="59" width="11" height="11"/><rect class="c l0" x="465" y="73" width="11" height="11"/><rect class="c l0" x="465" y="87" width="11" height="11"/><rect class="c l0" x="479" y="3" width="11" height="11"/><rect class="c l0" x="479" y="17" width="11" height="11"/><rect class="c l0" x="479" y="31" width="11" height="11"/><rect class="c l0" x="479" y="45" width="11" height="11"/><rect class="c l0" x="479" y="59" width="11" height="11"/><rect class="c l0" x="479" y="73" width="11" height="11"/><rect class="c l0" x="479" y="87" width="11" height="11"/><rect class="c l0" x="493" y="3" width="11" height="11"/><rect class="c l0" x="493" y="17" width="11" height="11"/><rect class="c l0" x="493" y="31" width="11" height="11"/><rect class="c l0" x="493" y="45" width="11" height="11"/><rect class="c l0" x="493" y="59" width="11" height="11"/><rect class="c l0" x="493" y="73" width="11" height="11"/><rect class="c l0" x="493" y="87" width="11" height="11"/><rect class="c l0" x="507" y="3" width="11" height="11"/><rect class="c l0" x="507" y="17" width="11" height="11"/><rect class="c l0" x="507" y="31" width="11" height="11"/><rect class="c l0" x="507" y="45" width="11" height="11"/><rect class="c l0" x="507" y="59" width="11" height="11"/><rect class="c l0" x="507" y="73" width="11" height="11"/><rect class="c l0" x="507" y="87" width="11" height="11"/><rect class="c l0" x="521" y="3" width="11" height="11"/><rect class="c l0" x="521" y="17" width="11" height="11"/><rect class="c l0" x="521" y="31" width="11" height="11"/><rect class="c l0" x="521" y="45" width="11" height="11"/><rect class="c l0" x="521" y="59" width="11" height="11"/><rect class="c l0" x="521" y="73" width="11" height="11"/><rect class="c l0" x="521" y="87" width="11" height="11"/><rect class="c l0" x="535" y="3" width="11" height="11"/><rect class="c l0" x="535" y="17" width="11" height="11"/><rect class="c l0" x="535" y="31" width="11" height="11"/><rect class="c l0" x="535" y="45" width="11" height="11"/><rect class="c l0" x="535" y="59" width="11" height="11"/><rect class="c l0" x="535" y="73" width="11" height="11"/><rect class="c l0" x="535" y="87" width="11" height="11"/><rect class="c l0" x="549" y="3" width="11" height="11"/><rect class="c l0" x="549" y="17" width="11" height="11"/><rect class="c l0" x="549" y="31" width="11" height="11"/><rect class="c l0" x="549" y="45" width="11" height="11"/><rect class="c l0" x="549" y="59" width="11" height="11"/><rect class="c l0" x="549" y="73" width="11" height="11"/><rect class="c l0" x="549" y="87" width="11" height="11"/><rect class="c l0" x="563" y="3" width="11" height="11"/><rect class="c l0" x="563" y="17" width="11" height="11"/><rect class="c l0" x="563" y="31" width="11" height="11"/><rect class="c l0" x="563" y="45" width="11" height="11"/><rect class="c l0" x="563" y="59" width="11" height="11"/><rect class="c l0" x="563" y="73" width="11" height="11"/><rect class="c l0" x="563" y="87" width="11" height="11"/><rect class="c l0" x="577" y="3" width="11" height="11"/><rect class="c l0" x="577" y="17" width="11" height="11"/><rect class="c l0" x="577" y="31" width="11" height="11"/><rect class="c l0" x="577" y="45" width="11" height="11"/><rect class="c l0" x="577" y="59" width="11" height="11"/><rect class="c l0" x="577" y="73" width="11" height="11"/><rect class="c l0" x="577" y="87" width="11" height="11"/><rect class="c l0" x="591" y="3" width="11" height="11"/><rect class="c l0" x="591" y="17" width="11" height="11"/><rect class="c l0" x="591" y="31" width="11" height="11"/><rect class="c l0" x="591" y="45" width="11" height="11"/><rect class="c l0" x="591" y="59" width="11" height="11"/><rect class="c l0" x="591" y="73" width="11" height="11"/><rect class="c l0" x="591" y="87" width="11" height="11"/><rect class="c l0" x="605" y="3" width="11" height="11"/><rect class="c l0" x="605" y="17" width="11" height="11"/><rect class="c l0" x="605" y="31" width="11" height="11"/><rect class="c l0" x="605" y="45" width="11" height="11"/><rect class="c l0" x="605" y="59" width="11" height="11"/><rect class="c l0" x="605" y="73" width="11" height="11"/><rect class="c l0" x="605" y="87" width="11" height="11"/><rect class="c l0" x="619" y="3" width="11" height="11"/><rect class="c l0" x="619" y="17" width="11" height="11"/><rect class="c l0" x="619" y="31" width="11" height="11"/><rect class="c l0" x="619" y="45" width="11" height="11"/><rect class="c l0" x="619" y="59" width="11" height="11"/><rect class="c l0" x="619" y="73" width="11" height="11"/><rect class="c l0" x="619" y="87" width="11" height="11"/><rect class="c l0" x="633" y="3" width="11" height="11"/><rect class="c l0" x="633" y="17" width="11" height="11"/><rect class="c l0" x="633" y="31" width="11" height="11"/><rect class="c l0" x="633" y="45" width="11" height="11"/><rect class="c l0" x="633" y="59" width="11" height="11"/><rect class="c l0" x="633" y="73" width="11" height="11"/><rect class="c l0" x="633" y="87" width="11" height="11"/><rect class="c l0" x="647" y="3" width="11" height="11"/><rect class="c l0" x="647" y="17" width="11" height="11"/><rect class="c l0" x="647" y="31" width="11" height="11"/><rect class="c l0" x="647" y="45" width="11" height="11"/><rect class="c l0" x="647" y="59" width="11" height="11"/><rect class="c l0" x="647" y="73" width="11" height="11"/><rect class="c l0" x="647" y="87" width="11" height="11"/><rect class="c l0" x="661" y="3" width="11" height="11"/><rect class="c l0" x="661" y="17" width="11" height="11"/><rect class="c l0" x="661" y="31" width="11" height="11"/><rect class="c l0" x="661" y="45" width="11" height="11"/><rect class="c l0" x="661" y="59" width="11" height="11"/><rect class="c l0" x="661" y="73" width="11" height="11"/><rect class="c l0" x="661" y="87" width="11" height="11"/><rect class="c l0" x="675" y="3" width="11" height="11"/><rect class="c l0" x="675" y="17" width="11" height="11"/><rect class="c l0" x="675" y="31" width="11" height="11"/><rect class="c l0" x="675" y="45" width="11" height="11"/><rect class="c l0" x="675" y="59" width="11" height="11"/><rect class="c l0" x="675" y="73" width="11" height="11"/><rect class="c l0" x="675" y="87" width="11" height="11"/><rect class="c l0" x="689" y="3" width="11" height="11"/><rect class="c l2" x="689" y="17" width="11" height="11" style="animation:popg 14.00s -7.802s infinite"/><rect class="c l0" x="689" y="31" width="11" height="11"/><rect class="c l0" x="689" y="45" width="11" height="11"/><rect class="c l0" x="689" y="59" width="11" height="11"/><rect class="c l0" x="689" y="73" width="11" height="11"/><rect class="c l0" x="689" y="87" width="11" height="11"/><rect class="c l0" x="703" y="3" width="11" height="11"/><rect class="c l0" x="703" y="17" width="11" height="11"/><rect class="c l0" x="703" y="31" width="11" height="11"/><rect class="c l1" x="703" y="45" width="11" height="11" style="animation:popg 14.00s -5.702s infinite"/><rect class="c l1" x="703" y="59" width="11" height="11" style="animation:popg 14.00s -12.702s infinite"/><rect class="c l1" x="703" y="73" width="11" height="11" style="animation:popg 14.00s -2.902s infinite"/><rect class="c l1" x="703" y="87" width="11" height="11" style="animation:popg 14.00s -4.302s infinite"/><rect class="c l2" x="717" y="3" width="11" height="11" style="animation:popg 14.00s -12.002s infinite"/><rect class="c l3" x="717" y="17" width="11" height="11" style="animation:popg 14.00s -0.102s infinite"/><rect class="c l3" x="717" y="31" width="11" height="11" style="animation:popg 14.00s -1.502s infinite"/><rect class="c l4" x="717" y="45" width="11" height="11" style="animation:popg 14.00s -5.002s infinite"/><rect class="c l1" x="717" y="59" width="11" height="11" style="animation:popg 14.00s -6.402s infinite"/><rect class="c l2" x="717" y="73" width="11" height="11" style="animation:popg 14.00s -9.202s infinite"/><rect class="c l2" x="717" y="87" width="11" height="11" style="animation:popg 14.00s -3.602s infinite"/><rect class="c l3" x="731" y="3" width="11" height="11" style="animation:popg 14.00s -2.202s infinite"/><rect class="c l1" x="731" y="17" width="11" height="11" style="animation:popg 14.00s -0.802s infinite"/><rect class="c l2" x="731" y="31" width="11" height="11" style="animation:popg 14.00s -13.402s infinite"/><rect class="c l1" x="731" y="45" width="11" height="11" style="animation:popg 14.00s -10.602s infinite"/><rect class="c l2" x="731" y="59" width="11" height="11" style="animation:popg 14.00s -7.102s infinite"/><rect class="c l3" x="731" y="73" width="11" height="11" style="animation:popg 14.00s -9.902s infinite"/><circle class="shell" cx="372.5" cy="50.5" r="3.2" style="animation:f0 14.00s linear infinite"/><circle class="shell" cx="372.5" cy="50.5" r="3.2" style="animation:f1 14.00s linear infinite"/><circle class="shell" cx="372.5" cy="50.5" r="3.2" style="animation:f2 14.00s linear infinite"/><circle class="shell" cx="372.5" cy="50.5" r="3.2" style="animation:f3 14.00s linear infinite"/><circle class="shell" cx="372.5" cy="50.5" r="3.2" style="animation:f4 14.00s linear infinite"/><circle class="shell" cx="372.5" cy="50.5" r="3.2" style="animation:f5 14.00s linear infinite"/><circle class="shell" cx="372.5" cy="50.5" r="3.2" style="animation:f6 14.00s linear infinite"/><circle class="shell" cx="372.5" cy="50.5" r="3.2" style="animation:f7 14.00s linear infinite"/><circle class="shell" cx="372.5" cy="50.5" r="3.2" style="animation:f8 14.00s linear infinite"/><circle class="shell" cx="372.5" cy="50.5" r="3.2" style="animation:f9 14.00s linear infinite"/><circle class="shell" cx="372.5" cy="50.5" r="3.2" style="animation:f10 14.00s linear infinite"/><circle class="shell" cx="372.5" cy="50.5" r="3.2" style="animation:f11 14.00s linear infinite"/><circle class="shell" cx="372.5" cy="50.5" r="3.2" style="animation:f12 14.00s linear infinite"/><circle class="shell" cx="372.5" cy="50.5" r="3.2" style="animation:f13 14.00s linear infinite"/><circle class="shell" cx="372.5" cy="50.5" r="3.2" style="animation:f14 14.00s linear infinite"/><circle class="shell" cx="372.5" cy="50.5" r="3.2" style="animation:f15 14.00s linear infinite"/><circle class="shell" cx="372.5" cy="50.5" r="3.2" style="animation:f16 14.00s linear infinite"/><circle class="shell" cx="372.5" cy="50.5" r="3.2" style="animation:f17 14.00s linear infinite"/><circle class="shell" cx="372.5" cy="50.5" r="3.2" style="animation:f18 14.00s linear infinite"/><circle class="shell" cx="372.5" cy="50.5" r="3.2" style="animation:f19 14.00s linear infinite"/><g transform="translate(372.5,50.5)"><g class="turret" style="transform-origin:7.0px 5.0px"><rect class="gun" x="-7.0" y="-5.0" width="14.0" height="10.0" rx="4.5"/><rect class="gun" x="5.0" y="-2.6" width="17.0" height="5.2" rx="2.6"/></g></g></svg>
